PathFileType	3	(X/Y/Z)	D:\VICON_DB\Goncalves\Pilot01\09-03-2026\walking_02.trc
DataRate	CameraRate	NumFrames	NumMarkers	Units	OrigDataRate	OrigDataStartFrame	OrigNumFrames
200.0	200.0	4	34	mm	200.0	1	1300	
Frame#	Time	LASI			RASI			LPSI			RPSI			LTHI			LTHAP			LTHAD			LKNE			LKNM			LTIB			LTIAP			LTIAD			LANK			LMED			LHEE			LTOE			LFMH			LSMH			LVMH			RTHI			RTHAP			RTHAD			RKNE			RKNM			RTIB			RTIAP			RTIAD			RANK			RMED			RHEE			RTOE			RFMH			RSMH			RVMH			
		X1	Y1	Z1	X2	Y2	Z2	X3	Y3	Z3	X4	Y4	Z4	X5	Y5	Z5	X6	Y6	Z6	X7	Y7	Z7	X8	Y8	Z8	X9	Y9	Z9	X10	Y10	Z10	X11	Y11	Z11	X12	Y12	Z12	X13	Y13	Z13	X14	Y14	Z14	X15	Y15	Z15	X16	Y16	Z16	X17	Y17	Z17	X18	Y18	Z18	X19	Y19	Z19	X20	Y20	Z20	X21	Y21	Z21	X22	Y22	Z22	X23	Y23	Z23	X24	Y24	Z24	X25	Y25	Z25	X26	Y26	Z26	X27	Y27	Z27	X28	Y28	Z28	X29	Y29	Z29	X30	Y30	Z30	X31	Y31	Z31	X32	Y32	Z32	X33	Y33	Z33	X34	Y34	Z34	
1	0	368.84796	891.98022	-2788.4319	107.4853	889.60889	-2790.9983				232.25827	875.82416	-3037.6821	385.86572	683.68518	-2790.4148	407.37225	756.30267	-2807.521	403.69284	616.91235	-2829.3572	380.71872	463.80972	-2883.0803				386.31726	266.43378	-2923.02	329.87936	345.53091	-2869.3254	350.98233	241.68404	-2888.3228	346.84576	61.76926	-2954.9934				296.19434	57.043343	-3004.2917	316.73083	63.906708	-2877.5813	284.58978	37.775116	-2822.5981				366.30991	18.914482	-2830.438	71.822289	612.26556	-2837.6501	84.884209	739.69391	-2798.9641	111.4808	647.45184	-2781.7822	92.788918	478.64856	-2888.6155				84.408928	284.61533	-2914.469	166.43251	318.46475	-2844.3706	139.64937	255.16216	-2884.5283	124.05127	51.709396	-2960.1404				166.6389	49.9491	-2998.0691	144.56772	60.253651	-2869.6819	174.75624	40.763618	-2819.0713				99.320869	10.334253	-2830.4902
2	0.005	368.95059	891.90887	-2788.345	107.50533	889.59308	-2790.843				224.88879	883.70624	-3030.2122	385.86407	683.66595	-2790.3484	407.36603	756.28119	-2807.4575	403.698	616.89606	-2829.3083	380.71835	463.73895	-2882.9688				386.38098	266.39828	-2923.0186	329.86581	345.52542	-2869.2959	350.97382	241.66924	-2888.3005	346.6308	61.612465	-2954.6736				296.27722	56.967236	-3004.2227	316.74026	63.898766	-2877.5737	284.58572	37.769146	-2822.6025				366.30484	18.916229	-2830.4338	71.851074	612.25427	-2837.5234	84.941719	739.62897	-2798.7537	111.53538	647.4043	-2781.6665	92.757507	478.6449	-2888.5408				84.395569	284.61517	-2914.427	165.06233	322.57919	-2848.2471	139.61745	255.06935	-2884.666	124.04199	51.702728	-2960.1394				166.60516	49.958092	-2998.0752	144.56071	60.246796	-2869.677	174.75963	40.761612	-2819.0789				99.331146	10.332808	-2830.4805
3	0.01	369.06445	891.83276	-2788.2446	107.52978	889.57397	-2790.6621				217.6821	891.41022	-3022.8889	385.86798	683.64496	-2790.2673	407.36011	756.25897	-2807.3813	403.70227	616.87848	-2829.2485	380.71744	463.66565	-2882.8467				386.4469	266.36438	-2922.9946	329.85355	345.5188	-2869.2585	350.96423	241.65157	-2888.2749	346.41141	61.453602	-2954.3462				296.37085	56.881485	-3004.1438	316.74939	63.890667	-2877.5654	284.58105	37.762383	-2822.6069				366.29901	18.918276	-2830.4292	71.88813	612.23694	-2837.3762	85.000465	739.56207	-2798.5261	111.59868	647.35016	-2781.5364	92.725182	478.6405	-2888.4563				84.381348	284.61508	-2914.3828	163.72296	326.59961	-2852.0283	139.58571	254.97902	-2884.793	124.03284	51.695271	-2960.1389				166.56923	49.968307	-2998.0828	144.55301	60.239441	-2869.6721	174.76221	40.75996	-2819.0881				99.34243	10.331293	-2830.4697
4	0.015	369.18674	891.75482	-2788.1326	107.55853	889.55157	-2790.4563				210.92076	898.63373	-3015.9946	385.87888	683.62262	-2790.1711	407.35486	756.23651	-2807.293	403.70499	616.86023	-2829.1763	380.71582	463.59317	-2882.717				386.51273	266.3327	-2922.9502	329.84375	345.51083	-2869.2134	350.95392	241.63095	-2888.2471	346.19714	61.300056	-2954.0256				296.47318	56.787891	-3004.0564	316.75757	63.882797	-2877.5569	284.57593	37.754864	-2822.6128				366.29248	18.920624	-2830.4241	71.933945	612.21289	-2837.2087	85.059441	739.49506	-2798.2844	111.67009	647.28986	-2781.3926	92.693237	478.63528	-2888.364				84.366669	284.61514	-2914.3379	162.4671	330.3678	-2855.5647	139.5553	254.89542	-2884.9023	124.02437	51.687157	-2960.1384				166.53227	49.979626	-2998.0911	144.5448	60.231712	-2869.6665	174.76381	40.758762	-2819.0994				99.354439	10.329759	-2830.4583
